<svg width="146" height="51" viewBox="0 0 146 51" fill="none" xmlns="http://www.w3.org/2000/svg">
<g clip-path="url(#clip0_912_12903)">
<path d="M113.325 19.9428C113.325 16.1838 116.372 13.1365 120.131 13.1365C123.89 13.1365 126.938 16.1838 126.938 19.9428C126.938 23.7019 123.89 26.7492 120.131 26.7492C116.372 26.7492 113.325 23.7019 113.325 19.9428Z" fill="#4C35E0"/>
<path fill-rule="evenodd" clip-rule="evenodd" d="M102.903 17.5918C103.622 8.86093 110.918 2.1416 119.679 2.1416H120.584C129.344 2.1416 136.64 8.86093 137.36 17.5918C137.747 22.2926 136.295 26.9602 133.309 30.6117L123.271 42.8878C121.648 44.8727 118.614 44.8727 116.991 42.8878L106.953 30.6117C103.967 26.9603 102.515 22.2926 102.903 17.5918ZM120.131 9.99509C114.637 9.99509 110.183 14.4488 110.183 19.9428C110.183 25.4368 114.637 29.8906 120.131 29.8906C125.625 29.8906 130.079 25.4368 130.079 19.9428C130.079 14.4488 125.625 9.99509 120.131 9.99509Z" fill="#4C35E0"/>
<path d="M15.9604 38L6.92275 26.1285V38H0.374295V11.1169H6.92275V22.9117L15.8838 11.1169H23.5811L13.1649 24.2904L23.9641 38H15.9604ZM25.7741 27.2774C25.7741 25.0818 26.1826 23.1543 26.9996 21.4948C27.842 19.8354 28.9781 18.5589 30.4078 17.6653C31.8375 16.7718 33.4331 16.325 35.1947 16.325C36.701 16.325 38.0158 16.6313 39.1391 17.2441C40.2879 17.8568 41.1687 18.661 41.7815 19.6567V16.6313H48.3299V38H41.7815V34.9747C41.1432 35.9704 40.2496 36.7746 39.1008 37.3873C37.9775 38 36.6627 38.3064 35.1564 38.3064C33.4204 38.3064 31.8375 37.8596 30.4078 36.966C28.9781 36.047 27.842 34.7577 26.9996 33.0982C26.1826 31.4132 25.7741 29.473 25.7741 27.2774ZM41.7815 27.3157C41.7815 25.6817 41.3219 24.3925 40.4028 23.4479C39.5093 22.5033 38.4115 22.0309 37.1095 22.0309C35.8074 22.0309 34.6969 22.5033 33.7778 23.4479C32.8842 24.367 32.4375 25.6435 32.4375 27.2774C32.4375 28.9113 32.8842 30.2133 33.7778 31.1835C34.6969 32.1281 35.8074 32.6004 37.1095 32.6004C38.4115 32.6004 39.5093 32.1281 40.4028 31.1835C41.3219 30.2389 41.7815 28.9496 41.7815 27.3157ZM66.0878 16.4016C68.5897 16.4016 70.5811 17.2185 72.0618 18.8525C73.5681 20.4609 74.3212 22.682 74.3212 25.5158V38H67.811V26.3966C67.811 24.9669 67.4409 23.8563 66.7005 23.0649C65.9601 22.2735 64.9644 21.8778 63.7135 21.8778C62.4625 21.8778 61.4668 22.2735 60.7265 23.0649C59.9861 23.8563 59.6159 24.9669 59.6159 26.3966V38H53.0674V16.6313H59.6159V19.4652C60.2797 18.5206 61.1732 17.7802 62.2965 17.2441C63.4199 16.6824 64.6836 16.4016 66.0878 16.4016ZM85.4202 19.6567C86.0329 18.661 86.9137 17.8568 88.0626 17.2441C89.2114 16.6313 90.5262 16.325 92.0069 16.325C93.7685 16.325 95.3641 16.7718 96.7938 17.6653C98.2235 18.5589 99.3468 19.8354 100.164 21.4948C101.006 23.1543 101.428 25.0818 101.428 27.2774C101.428 29.473 101.006 31.4132 100.164 33.0982C99.3468 34.7577 98.2235 36.047 96.7938 36.966C95.3641 37.8596 93.7685 38.3064 92.0069 38.3064C90.5007 38.3064 89.1859 38.0128 88.0626 37.4256C86.9392 36.8129 86.0584 36.0087 85.4202 35.013V38H78.8717V9.66164H85.4202V19.6567ZM94.7642 27.2774C94.7642 25.6435 94.3047 24.367 93.3856 23.4479C92.492 22.5033 91.3815 22.0309 90.0539 22.0309C88.7519 22.0309 87.6413 22.5033 86.7222 23.4479C85.8287 24.3925 85.3819 25.6817 85.3819 27.3157C85.3819 28.9496 85.8287 30.2389 86.7222 31.1835C87.6413 32.1281 88.7519 32.6004 90.0539 32.6004C91.3559 32.6004 92.4665 32.1281 93.3856 31.1835C94.3047 30.2133 94.7642 28.9113 94.7642 27.2774Z" fill="#4C35E0"/>
</g>
<defs>
<clipPath id="clip0_912_12903">
<rect width="146" height="50.2623" fill="white"/>
</clipPath>
</defs>
</svg>
