<svg width="191" height="186" viewBox="0 0 191 186" fill="none" xmlns="http://www.w3.org/2000/svg">
<g clip-path="url(#clip0_1668_4132)">
<path d="M120.969 41.8307H69.624C68.454 41.8321 67.3322 42.2976 66.5049 43.1249C65.6775 43.9523 65.2121 45.074 65.2107 46.2441V160.358L64.6222 160.538L52.0265 164.395C51.4295 164.577 50.7848 164.515 50.2337 164.222C49.6826 163.929 49.2703 163.429 49.0873 162.833L11.6207 40.4508C11.4384 39.8539 11.5005 39.2089 11.7935 38.6578C12.0864 38.1066 12.5863 37.6943 13.1831 37.5115L32.5931 31.5682L88.8634 14.3444L108.273 8.40111C108.569 8.3102 108.879 8.27844 109.187 8.30763C109.494 8.33682 109.793 8.4264 110.066 8.57124C110.339 8.71608 110.581 8.91334 110.778 9.15172C110.974 9.39011 111.122 9.66494 111.213 9.9605L120.79 41.2423L120.969 41.8307Z" fill="#F2F2F2"/>
<path d="M132.173 41.2424L120.631 3.54067C120.439 2.91249 120.125 2.32831 119.707 1.8215C119.289 1.3147 118.775 0.895204 118.195 0.586993C117.615 0.278782 116.98 0.0878916 116.326 0.0252372C115.672 -0.0374172 115.012 0.0293922 114.384 0.221841L87.0951 8.57483L30.8278 25.8016L3.53852 34.1575C2.2708 34.5468 1.20933 35.4231 0.587087 36.5942C-0.0351553 37.7653 -0.167328 39.1354 0.219586 40.4039L39.6691 169.253C39.9834 170.277 40.6177 171.173 41.4787 171.81C42.3397 172.447 43.3822 172.791 44.4533 172.792C44.949 172.793 45.4419 172.718 45.9155 172.572L64.6223 166.846L65.2107 166.664V166.049L64.6223 166.228L45.742 172.01C44.623 172.351 43.4144 172.234 42.3813 171.685C41.3482 171.137 40.5749 170.2 40.2311 169.082L0.784616 40.2303C0.614287 39.6762 0.554923 39.094 0.609921 38.517C0.664918 37.94 0.833194 37.3795 1.10512 36.8676C1.37705 36.3557 1.74729 35.9025 2.19462 35.5339C2.64196 35.1653 3.15761 34.8885 3.71206 34.7195L31.0013 26.3636L87.2687 9.13974L114.558 0.783812C114.979 0.655472 115.416 0.590034 115.855 0.589624C116.799 0.591743 117.717 0.895956 118.475 1.45771C119.234 2.01946 119.792 2.80922 120.069 3.71133L131.558 41.2424L131.741 41.8309H132.353L132.173 41.2424Z" fill="#3F3D56"/>
<path d="M36.0956 37.6079C35.5286 37.6075 34.9765 37.4254 34.5205 37.0882C34.0645 36.7511 33.7286 36.2767 33.562 35.7347L29.7723 23.3562C29.6704 23.0237 29.6351 22.6744 29.6683 22.3282C29.7015 21.982 29.8025 21.6458 29.9656 21.3387C30.1288 21.0316 30.3508 20.7596 30.6191 20.5384C30.8874 20.3171 31.1966 20.1508 31.5291 20.0491L83.2946 4.2011C83.9661 3.99619 84.6915 4.06607 85.3116 4.39543C85.9316 4.72478 86.3957 5.28669 86.6019 5.95782L90.3916 18.3364C90.5964 19.008 90.5264 19.7333 90.1971 20.3533C89.8677 20.9734 89.3059 21.4374 88.6349 21.6437L36.8693 37.4917C36.6186 37.5686 36.3579 37.6078 36.0956 37.6079Z" fill="#6C63FF"/>
<path d="M55.9477 13.2267C59.1976 13.2267 61.8322 10.5921 61.8322 7.34222C61.8322 4.09232 59.1976 1.45776 55.9477 1.45776C52.6978 1.45776 50.0632 4.09232 50.0632 7.34222C50.0632 10.5921 52.6978 13.2267 55.9477 13.2267Z" fill="#6C63FF"/>
<path d="M55.9477 11.0684C58.0056 11.0684 59.6739 9.40012 59.6739 7.34219C59.6739 5.28425 58.0056 3.61597 55.9477 3.61597C53.8897 3.61597 52.2215 5.28425 52.2215 7.34219C52.2215 9.40012 53.8897 11.0684 55.9477 11.0684Z" fill="white"/>
<path d="M177.31 171.289H77.8624C77.1993 171.288 76.5636 171.024 76.0948 170.555C75.6259 170.087 75.3622 169.451 75.3615 168.788V49.6276C75.3622 48.9646 75.6259 48.3289 76.0948 47.86C76.5636 47.3912 77.1993 47.1274 77.8624 47.1267H177.31C177.973 47.1275 178.609 47.3912 179.078 47.86C179.546 48.3289 179.81 48.9646 179.811 49.6276V168.788C179.81 169.451 179.546 170.087 179.078 170.555C178.609 171.024 177.973 171.288 177.31 171.289Z" fill="#E6E6E6"/>
<path d="M131.558 41.2424H69.624C68.298 41.2443 67.0269 41.7719 66.0893 42.7095C65.1517 43.6471 64.6241 44.9182 64.6222 46.2442V166.228L65.2107 166.049V46.2442C65.2121 45.0742 65.6775 43.9524 66.5049 43.1251C67.3322 42.2977 68.454 41.8323 69.624 41.8309H131.741L131.558 41.2424ZM185.548 41.2424H69.624C68.298 41.2443 67.0269 41.7719 66.0893 42.7095C65.1517 43.6471 64.6241 44.9182 64.6222 46.2442V180.998C64.6241 182.324 65.1517 183.595 66.0893 184.533C67.0269 185.471 68.298 185.998 69.624 186H185.548C186.874 185.998 188.145 185.471 189.083 184.533C190.021 183.595 190.548 182.324 190.55 180.998V46.2442C190.548 44.9182 190.021 43.6471 189.083 42.7095C188.145 41.7719 186.874 41.2443 185.548 41.2424ZM189.962 180.998C189.96 182.168 189.495 183.29 188.667 184.117C187.84 184.945 186.718 185.41 185.548 185.412H69.624C68.454 185.41 67.3322 184.945 66.5049 184.117C65.6775 183.29 65.2121 182.168 65.2107 180.998V46.2442C65.2121 45.0742 65.6775 43.9524 66.5049 43.1251C67.3322 42.2977 68.454 41.8323 69.624 41.8309H185.548C186.718 41.8323 187.84 42.2977 188.667 43.1251C189.495 43.9524 189.96 45.0742 189.962 46.2442V180.998Z" fill="#3F3D56"/>
<path d="M154.655 54.1881H100.518C99.8155 54.1873 99.1424 53.9081 98.646 53.4116C98.1496 52.9152 97.8704 52.2422 97.8696 51.5401V38.5943C97.8704 37.8922 98.1496 37.2192 98.646 36.7227C99.1425 36.2263 99.8155 35.9471 100.518 35.9463H154.655C155.357 35.9471 156.03 36.2263 156.526 36.7227C157.023 37.2192 157.302 37.8922 157.303 38.5943V51.5401C157.302 52.2422 157.023 52.9152 156.526 53.4116C156.03 53.9081 155.357 54.1873 154.655 54.1881Z" fill="#6C63FF"/>
<path d="M127.586 36.829C130.836 36.829 133.471 34.1944 133.471 30.9445C133.471 27.6946 130.836 25.0601 127.586 25.0601C124.336 25.0601 121.702 27.6946 121.702 30.9445C121.702 34.1944 124.336 36.829 127.586 36.829Z" fill="#6C63FF"/>
<path d="M127.586 34.5287C129.566 34.5287 131.17 32.924 131.17 30.9445C131.17 28.965 129.566 27.3604 127.586 27.3604C125.607 27.3604 124.002 28.965 124.002 30.9445C124.002 32.924 125.607 34.5287 127.586 34.5287Z" fill="white"/>
</g>
<defs>
<clipPath id="clip0_1668_4132">
<rect width="190.55" height="186" fill="white"/>
</clipPath>
</defs>
</svg>
